<svg width="106" height="106" viewBox="0 0 106 106" fill="none" xmlns="http://www.w3.org/2000/svg">
<path d="M40.1333 0.883541C31.7333 3.01687 19.7333 10.2169 13.8667 16.4835C10.9333 19.6835 6.53333 26.3502 4.26667 31.2835C0.4 39.4169 0 41.4169 0 53.0169C0 65.0169 0.266667 66.2169 4.93333 75.8169C10.9333 87.9502 18.6667 95.4169 31.0667 101.284C39.2 105.15 41.2 105.55 52.6667 105.55C64.1333 105.55 66.1333 105.15 74.2667 101.284C86.6667 95.4169 94.4 87.9502 100.4 75.8169C105.067 66.2169 105.333 65.0169 105.333 52.8835C105.333 40.7502 105.067 39.5502 100.4 29.9502C91.3333 11.8169 75.3333 1.01687 55.6 0.083541C50 -0.183126 43.0667 0.216874 40.1333 0.883541ZM70.6667 14.3502C79.0667 18.3502 87.2 26.3502 91.3333 34.8835C95.8667 44.4835 95.8667 61.2835 91.3333 70.8835C87.2 79.4169 79.2 87.4169 70.6667 91.5502C61.0667 96.0835 44.2667 96.0835 34.6667 91.5502C0 74.7502 2.93333 25.5502 39.3333 12.3502C47.7333 9.28354 62 10.2169 70.6667 14.3502Z" fill="black"/>
</svg>
