<svg width="36" height="36" viewBox="0 0 36 36" fill="none" xmlns="http://www.w3.org/2000/svg">
<path fill-rule="evenodd" clip-rule="evenodd" d="M10.7759 8.25C11.6419 6.75 13.8069 6.75 14.673 8.25L17.8663 13.7809C19.1821 12.8932 20.7677 12.375 22.4744 12.375C27.0308 12.375 30.7244 16.0687 30.7244 20.625C30.7244 25.1813 27.0308 28.875 22.4744 28.875C17.9181 28.875 14.2244 25.1813 14.2244 20.625H7.52826C5.79621 20.625 4.71368 18.75 5.5797 17.25L10.7759 8.25ZM13.3739 9L18.5701 18C18.8588 18.5 18.4979 19.125 17.9206 19.125H7.52826C6.95091 19.125 6.59006 18.5 6.87874 18L12.0749 9C12.3636 8.5 13.0853 8.5 13.3739 9ZM15.7244 20.625C15.7244 24.3529 18.7465 27.375 22.4744 27.375C26.2023 27.375 29.2244 24.3529 29.2244 20.625C29.2244 16.8971 26.2023 13.875 22.4744 13.875C21.0408 13.875 19.7117 14.3219 18.6186 15.084L19.8691 17.25C20.7351 18.75 19.6526 20.625 17.9206 20.625H15.7244Z" fill="black"/>
</svg>
