<svg width="50" height="50" viewBox="0 0 50 50" fill="none" xmlns="http://www.w3.org/2000/svg">
<path fill-rule="evenodd" clip-rule="evenodd" d="M13.0607 33.0105C13.6392 31.8533 13.9404 30.5774 13.9404 29.2837V22.9167C13.9404 17.1637 18.6041 12.5 24.3571 12.5C30.1101 12.5 34.7738 17.1637 34.7738 22.9167L34.7741 29.2828C34.7742 30.5765 35.0755 31.8524 35.6541 33.0095L36.1039 33.9091C36.4503 34.6017 35.9466 35.4167 35.1723 35.4167H29.4612C29.2585 36.4098 28.7684 37.3304 28.041 38.0578C27.0642 39.0346 25.7394 39.5833 24.3581 39.5833C22.9768 39.5833 21.652 39.0346 20.6753 38.0578C19.9478 37.3304 19.4577 36.4098 19.255 35.4167H13.543C12.7687 35.4167 12.265 34.6018 12.6113 33.9092L13.0607 33.0105ZM21.4118 35.4167C21.5657 35.852 21.8157 36.252 22.1484 36.5847C22.7345 37.1708 23.5293 37.5 24.3581 37.5C25.1869 37.5 25.9818 37.1708 26.5678 36.5847C26.9005 36.252 27.1505 35.852 27.3044 35.4167H21.4118ZM15.2285 33.3333C15.7515 32.2873 16.0238 31.1339 16.0238 29.9644L16.0238 22.9167C16.0238 18.3143 19.7547 14.5833 24.3571 14.5833C28.9595 14.5833 32.6904 18.3143 32.6904 22.9167L32.6908 29.9623C32.6908 31.1325 32.9633 32.2867 33.4867 33.3333H15.2285Z" fill="white"/>
</svg>
