<svg width="36" height="60" viewBox="0 0 36 60" fill="none" xmlns="http://www.w3.org/2000/svg">
<path d="M12.9697 30.8847C12.6768 30.3966 12.6768 29.6051 12.9697 29.117L17.7426 21.162C18.0355 20.6739 18.5104 20.6739 18.8033 21.162C19.0962 21.6502 19.0962 22.4416 18.8033 22.9298L14.6032 29.93C14.604 29.9534 14.6044 29.9771 14.6044 30.0008C14.6044 30.0068 14.6043 30.0127 14.6043 30.0187C14.6041 30.0364 14.6038 30.0541 14.6032 30.0717L18.8033 37.0719C19.0962 37.5601 19.0962 38.3515 18.8033 38.8397C18.5104 39.3278 18.0355 39.3278 17.7426 38.8397L12.9697 30.8847Z" fill="white"/>
</svg>
