<svg width="50" height="50" viewBox="0 0 50 50" fill="none" xmlns="http://www.w3.org/2000/svg">
<path fill-rule="evenodd" clip-rule="evenodd" d="M32.2918 26.0423C32.2918 29.4941 29.4936 32.2923 26.0418 32.2923C22.59 32.2923 19.7918 29.4941 19.7918 26.0423C19.7918 22.5905 22.59 19.7923 26.0418 19.7923C29.4936 19.7923 32.2918 22.5905 32.2918 26.0423ZM30.2084 26.0423C30.2084 28.3435 28.343 30.209 26.0418 30.209C23.7406 30.209 21.8751 28.3435 21.8751 26.0423C21.8751 23.7411 23.7406 21.8756 26.0418 21.8756C28.343 21.8756 30.2084 23.7411 30.2084 26.0423Z" fill="white"/>
<path fill-rule="evenodd" clip-rule="evenodd" d="M10.9946 21.7007L11.7121 21.2223L15.3209 40.1687C15.6017 41.6426 16.8903 42.709 18.3907 42.709H33.6928C35.1932 42.709 36.4819 41.6426 36.7626 40.1687L40.3715 21.2223L41.089 21.7007C41.5676 22.0198 42.2144 21.8904 42.5335 21.4118C42.8526 20.9331 42.7233 20.2864 42.2446 19.9672L27.7751 10.321C26.7254 9.62119 25.3579 9.6212 24.3082 10.321L9.83896 19.9672C9.36029 20.2864 9.23094 20.9331 9.55006 21.4118C9.86918 21.8904 10.5159 22.0198 10.9946 21.7007ZM26.6195 12.0544C26.2696 11.8212 25.8138 11.8212 25.4639 12.0544L13.5939 19.9678L17.3675 39.7789C17.4611 40.2702 17.8906 40.6256 18.3907 40.6256H33.6928C34.193 40.6256 34.6225 40.2702 34.7161 39.7789L38.4896 19.9678L26.6195 12.0544Z" fill="white"/>
</svg>
