<svg width="46" height="46" viewBox="0 0 46 46" fill="none" xmlns="http://www.w3.org/2000/svg">
<path fill-rule="evenodd" clip-rule="evenodd" d="M30.426 31.7813C28.4224 33.4773 25.8306 34.5 23 34.5C16.6487 34.5 11.5 29.3513 11.5 23C11.5 16.6487 16.6487 11.5 23 11.5C29.3513 11.5 34.5 16.6487 34.5 23C34.5 25.8306 33.4773 28.4224 31.7813 30.426L36.136 34.7807C36.5102 35.1549 36.5102 35.7617 36.136 36.136C35.7617 36.5102 35.1549 36.5102 34.7807 36.136L30.426 31.7813ZM32.5833 23C32.5833 28.2927 28.2927 32.5833 23 32.5833C17.7073 32.5833 13.4167 28.2927 13.4167 23C13.4167 17.7073 17.7073 13.4167 23 13.4167C28.2927 13.4167 32.5833 17.7073 32.5833 23Z" fill="#A8A8A8"/>
</svg>
