<svg width="114" height="43" viewBox="0 0 114 43" fill="none" xmlns="http://www.w3.org/2000/svg">
<path d="M73.7954 18.6481L58.681 24.3492C57.7535 24.699 56.2497 24.699 55.3222 24.3492L40.2078 18.6481C39.2803 18.2983 39.2803 17.7311 40.2078 17.3812C41.1353 17.0314 42.6391 17.0314 43.5666 17.3812L56.867 22.398C56.9116 22.3971 56.9564 22.3966 57.0016 22.3966C57.0129 22.3966 57.0242 22.3967 57.0354 22.3967C57.0692 22.3969 57.1028 22.3973 57.1362 22.398L70.4366 17.3812C71.3641 17.0314 72.8679 17.0314 73.7954 17.3812C74.7229 17.7311 74.7229 18.2983 73.7954 18.6481Z" fill="#EFEFEF"/>
</svg>