<svg width="35" height="41" viewBox="0 0 35 41" fill="none" xmlns="http://www.w3.org/2000/svg">
<path d="M28.2239 13.0633L23.5835 7.62738C23.2988 7.2938 22.8371 7.2938 22.5523 7.62738C22.2676 7.96095 22.2676 8.50178 22.5523 8.83535L25.948 12.8131H13.8542C9.82709 12.8131 6.5625 16.6373 6.5625 21.3547C6.5625 26.0722 9.82709 29.8964 13.8542 29.8964H23.3333C23.736 29.8964 24.0625 29.514 24.0625 29.0422C24.0625 28.5705 23.736 28.1881 23.3333 28.1881H13.8542C10.6325 28.1881 8.02083 25.1287 8.02083 21.3547C8.02083 17.5808 10.6325 14.5214 13.8542 14.5214H25.948L22.5523 18.4991C22.2676 18.8327 22.2676 19.3735 22.5523 19.7071C22.8371 20.0407 23.2988 20.0407 23.5835 19.7071L28.2239 14.2712C28.5087 13.9377 28.5087 13.3968 28.2239 13.0633Z" fill="white"/>
</svg>
