{
  "accessors": [
    {
      "bufferView": 2,
      "componentType": 5126,
      "count": 65532,
      "max": [
        22.73790168762207,
        16.655136108398438,
        10.946895599365234
      ],
      "min": [
        -8.369162559509277,
        -14.755976676940918,
        0.7379469871520996
      ],
      "type": "VEC3"
    },
    {
      "bufferView": 2,
      "byteOffset": 786384,
      "componentType": 5126,
      "count": 65532,
      "max": [
        1.0,
        1.0,
        0.9999978542327881
      ],
      "min": [
        -0.9999074935913086,
        -1.0,
        -0.9999938011169434
      ],
      "type": "VEC3"
    },
    {
      "bufferView": 1,
      "componentType": 5126,
      "count": 65532,
      "max": [
        0.9999880194664001,
        0.9988579750061035
      ],
      "min": [
        7.999999979801942e-06,
        8.499999967170879e-05
      ],
      "type": "VEC2"
    },
    {
      "bufferView": 0,
      "componentType": 5125,
      "count": 350511,
      "type": "SCALAR"
    },
    {
      "bufferView": 2,
      "byteOffset": 1572768,
      "componentType": 5126,
      "count": 65532,
      "max": [
        22.788915634155273,
        15.028536796569824,
        11.416260719299316
      ],
      "min": [
        -21.551597595214844,
        -16.257217407226563,
        0.7148079872131348
      ],
      "type": "VEC3"
    },
    {
      "bufferView": 2,
      "byteOffset": 2359152,
      "componentType": 5126,
      "count": 65532,
      "max": [
        0.9999436140060425,
        1.0,
        1.0
      ],
      "min": [
        -0.9999982118606567,
        -1.0,
        -0.9999780654907227
      ],
      "type": "VEC3"
    },
    {
      "bufferView": 1,
      "byteOffset": 524256,
      "componentType": 5126,
      "count": 65532,
      "max": [
        0.9990630149841309,
        0.99891597032547
      ],
      "min": [
        0.002474999986588955,
        0.00022400000307243317
      ],
      "type": "VEC2"
    },
    {
      "bufferView": 0,
      "byteOffset": 1402044,
      "componentType": 5125,
      "count": 347700,
      "type": "SCALAR"
    },
    {
      "bufferView": 2,
      "byteOffset": 3145536,
      "componentType": 5126,
      "count": 65532,
      "max": [
        21.047239303588867,
        16.587284088134766,
        11.90909481048584
      ],
      "min": [
        -21.252668380737305,
        -15.523916244506836,
        0.8044379949569702
      ],
      "type": "VEC3"
    },
    {
      "bufferView": 2,
      "byteOffset": 3931920,
      "componentType": 5126,
      "count": 65532,
      "max": [
        1.0,
        0.9999996423721313,
        0.9999984502792358
      ],
      "min": [
        -0.9999995231628418,
        -0.9999998807907104,
        -0.9999983310699463
      ],
      "type": "VEC3"
    },
    {
      "bufferView": 1,
      "byteOffset": 1048512,
      "componentType": 5126,
      "count": 65532,
      "max": [
        0.9999729990959167,
        0.9990050196647644
      ],
      "min": [
        3.7000001611886546e-05,
        1.9999999494757503e-05
      ],
      "type": "VEC2"
    },
    {
      "bufferView": 0,
      "byteOffset": 2792844,
      "componentType": 5125,
      "count": 307716,
      "type": "SCALAR"
    },
    {
      "bufferView": 2,
      "byteOffset": 4718304,
      "componentType": 5126,
      "count": 56872,
      "max": [
        25.492952346801758,
        16.553272247314453,
        11.612119674682617
      ],
      "min": [
        -21.00810432434082,
        -16.265361785888672,
        0.6121100187301636
      ],
      "type": "VEC3"
    },
    {
      "bufferView": 2,
      "byteOffset": 5400768,
      "componentType": 5126,
      "count": 56872,
      "max": [
        0.9999971389770508,
        0.9999992847442627,
        1.0
      ],
      "min": [
        -1.0,
        -1.0,
        -0.9999692440032959
      ],
      "type": "VEC3"
    },
    {
      "bufferView": 1,
      "byteOffset": 1572768,
      "componentType": 5126,
      "count": 56872,
      "max": [
        0.9999679923057556,
        0.9989799857139587
      ],
      "min": [
        4.5000000682193786e-05,
        3.999999989900971e-06
      ],
      "type": "VEC2"
    },
    {
      "bufferView": 0,
      "byteOffset": 4023708,
      "componentType": 5125,
      "count": 274143,
      "type": "SCALAR"
    },
    {
      "bufferView": 2,
      "byteOffset": 6083232,
      "componentType": 5126,
      "count": 5024,
      "max": [
        25.73585319519043,
        16.68003273010254,
        3.795011043548584
      ],
      "min": [
        -21.573205947875977,
        -16.271940231323242,
        0.2689630091190338
      ],
      "type": "VEC3"
    },
    {
      "bufferView": 2,
      "byteOffset": 6143520,
      "componentType": 5126,
      "count": 5024,
      "max": [
        0.9996004700660706,
        0.9999591112136841,
        0.9950646758079529
      ],
      "min": [
        -0.9998425841331482,
        -0.9999889135360718,
        -1.0
      ],
      "type": "VEC3"
    },
    {
      "bufferView": 1,
      "byteOffset": 2027744,
      "componentType": 5126,
      "count": 5024,
      "max": [
        0.9895960092544556,
        0.7736780047416687
      ],
      "min": [
        0.07864099740982056,
        0.01711300015449524
      ],
      "type": "VEC2"
    },
    {
      "bufferView": 0,
      "byteOffset": 5120280,
      "componentType": 5125,
      "count": 12648,
      "type": "SCALAR"
    }
  ],
  "asset": {
    "extras": {
      "author": "Lassi Kaukonen (https://sketchfab.com/thesidekick)",
      "license": "CC-BY-4.0 (http://creativecommons.org/licenses/by/4.0/)",
      "source": "https://sketchfab.com/3d-models/kurala-kylamaki-workshop-in-turku-finland-45cab08a88d34fbebe93b1b1b9f36b98",
      "title": "Kurala kylämäki workshop in Turku, Finland"
    },
    "generator": "Sketchfab-15.22.0",
    "version": "2.0"
  },
  "bufferViews": [
    {
      "buffer": 0,
      "byteLength": 5170872,
      "name": "floatBufferViews",
      "target": 34963
    },
    {
      "buffer": 0,
      "byteLength": 2067936,
      "byteOffset": 5170872,
      "byteStride": 8,
      "name": "floatBufferViews",
      "target": 34962
    },
    {
      "buffer": 0,
      "byteLength": 6203808,
      "byteOffset": 7238808,
      "byteStride": 12,
      "name": "floatBufferViews",
      "target": 34962
    }
  ],
  "buffers": [
    {
      "byteLength": 13442616,
      "uri": "scene.bin"
    }
  ],
  "extensionsUsed": [
    "KHR_materials_unlit"
  ],
  "images": [
    {
      "uri": "textures/Kurala_Workshop_baseColor.jpeg"
    }
  ],
  "materials": [
    {
      "doubleSided": true,
      "extensions": {
        "KHR_materials_unlit": {}
      },
      "name": "Base",
      "pbrMetallicRoughness": {
        "baseColorFactor": [
          0.05497,
          0.05497,
          0.05497,
          1.0
        ],
        "metallicFactor": 0.0
      }
    },
    {
      "doubleSided": true,
      "extensions": {
        "KHR_materials_unlit": {}
      },
      "name": "Kurala_Workshop",
      "pbrMetallicRoughness": {
        "baseColorTexture": {
          "index": 0
        },
        "metallicFactor": 0.0
      }
    }
  ],
  "meshes": [
    {
      "name": "Object_0",
      "primitives": [
        {
          "attributes": {
            "NORMAL": 1,
            "POSITION": 0,
            "TEXCOORD_0": 2
          },
          "indices": 3,
          "material": 1,
          "mode": 4
        }
      ]
    },
    {
      "name": "Object_1",
      "primitives": [
        {
          "attributes": {
            "NORMAL": 5,
            "POSITION": 4,
            "TEXCOORD_0": 6
          },
          "indices": 7,
          "material": 1,
          "mode": 4
        }
      ]
    },
    {
      "name": "Object_2",
      "primitives": [
        {
          "attributes": {
            "NORMAL": 9,
            "POSITION": 8,
            "TEXCOORD_0": 10
          },
          "indices": 11,
          "material": 1,
          "mode": 4
        }
      ]
    },
    {
      "name": "Object_3",
      "primitives": [
        {
          "attributes": {
            "NORMAL": 13,
            "POSITION": 12,
            "TEXCOORD_0": 14
          },
          "indices": 15,
          "material": 1,
          "mode": 4
        }
      ]
    },
    {
      "name": "Object_4",
      "primitives": [
        {
          "attributes": {
            "NORMAL": 17,
            "POSITION": 16,
            "TEXCOORD_0": 18
          },
          "indices": 19,
          "material": 0,
          "mode": 4
        }
      ]
    }
  ],
  "nodes": [
    {
      "children": [
        1
      ],
      "matrix": [
        1.0,
        0.0,
        0.0,
        0.0,
        0.0,
        2.220446049250313e-16,
        -1.0,
        0.0,
        0.0,
        1.0,
        2.220446049250313e-16,
        0.0,
        0.0,
        0.0,
        0.0,
        1.0
      ],
      "name": "Sketchfab_model"
    },
    {
      "children": [
        2,
        3,
        4,
        5,
        6
      ],
      "name": "Kurala_Workshop_SF.obj.cleaner.materialmerger.gles"
    },
    {
      "mesh": 0,
      "name": "Object_2"
    },
    {
      "mesh": 1,
      "name": "Object_3"
    },
    {
      "mesh": 2,
      "name": "Object_4"
    },
    {
      "mesh": 3,
      "name": "Object_5"
    },
    {
      "mesh": 4,
      "name": "Object_6"
    }
  ],
  "samplers": [
    {
      "magFilter": 9729,
      "minFilter": 9987,
      "wrapS": 10497,
      "wrapT": 10497
    }
  ],
  "scene": 0,
  "scenes": [
    {
      "name": "Sketchfab_Scene",
      "nodes": [
        0
      ]
    }
  ],
  "textures": [
    {
      "sampler": 0,
      "source": 0
    }
  ]
}
