<svg width="81" height="81" viewBox="0 0 81 81" fill="none" xmlns="http://www.w3.org/2000/svg">
<path fill-rule="evenodd" clip-rule="evenodd" d="M24.2458 18.5625C26.1944 15.1875 31.0657 15.1875 33.0143 18.5625L40.1992 31.0071C43.1598 29.0098 46.7275 27.8438 50.5675 27.8438C60.8193 27.8438 69.1301 36.1545 69.1301 46.4062C69.1301 56.658 60.8193 64.9688 50.5675 64.9688C40.3158 64.9688 32.005 56.658 32.005 46.4062H16.9387C13.0416 46.4062 10.6059 42.1875 12.5545 38.8125L24.2458 18.5625ZM30.0915 20.25L41.7828 40.5C42.4323 41.625 41.6204 43.0312 40.3214 43.0312H16.9387C15.6397 43.0312 14.8278 41.625 15.4773 40.5L27.1686 20.25C27.8182 19.125 29.4419 19.125 30.0915 20.25ZM35.3801 46.4062C35.3801 54.7941 42.1797 61.5938 50.5675 61.5938C58.9554 61.5938 65.7551 54.7941 65.7551 46.4062C65.7551 38.0184 58.9554 31.2188 50.5675 31.2188C47.342 31.2188 44.3514 32.2243 41.8919 33.9389L44.7057 38.8125C46.6542 42.1875 44.2185 46.4062 40.3214 46.4062H35.3801Z" fill="black"/>
</svg>
