<svg width="81" height="81" viewBox="0 0 81 81" fill="none" xmlns="http://www.w3.org/2000/svg">
<path fill-rule="evenodd" clip-rule="evenodd" d="M61.7577 43.0253L67.4585 36.805C68.7179 35.4308 68.6248 33.2959 67.2507 32.0366L49.8337 16.0744C48.4596 14.815 46.3247 14.9081 45.0653 16.2822L39.3645 22.5025L26.813 29.4784C25.9027 29.9843 25.277 30.8821 25.1174 31.9112L20.5518 61.352C20.1827 63.7319 22.3535 65.7214 24.6923 65.1467L53.6243 58.037C54.6357 57.7885 55.4756 57.087 55.9004 56.1362L61.7577 43.0253ZM28.4525 32.4284L40.4324 25.7702L58.4095 42.2458L52.8189 54.7595L26.8404 61.1434L37.1255 49.921C39.7781 51.3356 43.1496 50.8407 45.2746 48.5219C47.7934 45.7736 47.6073 41.5038 44.859 38.985C42.1107 36.4663 37.8408 36.6524 35.3221 39.4007C33.197 41.7194 32.9973 45.1212 34.6373 47.6406L24.3532 58.862L28.4525 32.4284ZM42.7865 46.2416C41.5342 47.608 39.4163 47.7077 38.0414 46.4707L38.0183 46.4491L37.9948 46.428C36.6429 45.1659 36.558 43.0474 37.8102 41.681C39.0696 40.3068 41.2045 40.2138 42.5787 41.4732C43.9528 42.7326 44.0459 44.8675 42.7865 46.2416ZM47.5534 18.5625L42.9928 23.5388L60.4097 39.501L64.9704 34.5247L47.5534 18.5625Z" fill="black"/>
<path d="M15.1875 19.1758C14.2555 19.1758 13.5 19.9314 13.5 20.8633C13.5 21.7953 14.2555 22.5508 15.1875 22.5508H25.3125C26.2445 22.5508 27 21.7953 27 20.8633C27 19.9314 26.2445 19.1758 25.3125 19.1758H15.1875Z" fill="black"/>
</svg>
