<svg width="37" height="101" viewBox="0 0 37 101" fill="none" xmlns="http://www.w3.org/2000/svg">
<path d="M13.33 51.9893C13.029 51.1676 13.029 49.8353 13.33 49.0136L18.2356 35.6227C18.5366 34.801 19.0247 34.801 19.3257 35.6227C19.6267 36.4444 19.6267 37.7767 19.3257 38.5985L15.0089 50.3822C15.0097 50.4216 15.0101 50.4614 15.0101 50.5014C15.0101 50.5114 15.0101 50.5214 15.01 50.5314C15.0099 50.5613 15.0095 50.5911 15.0089 50.6207L19.3257 62.4044C19.6267 63.2261 19.6267 64.5584 19.3257 65.3801C19.0247 66.2019 18.5366 66.2019 18.2356 65.3801L13.33 51.9893Z" fill="#837F7F"/>
</svg>
