<svg width="81" height="81" viewBox="0 0 81 81" fill="none" xmlns="http://www.w3.org/2000/svg">
<path fill-rule="evenodd" clip-rule="evenodd" d="M67.5 60.75C67.5 64.4779 64.4779 67.5 60.75 67.5H20.25C16.5221 67.5 13.5 64.4779 13.5 60.75V20.25C13.5 16.5221 16.5221 13.5 20.25 13.5H60.75C64.4779 13.5 67.5 16.5221 67.5 20.25V60.75ZM64.125 20.25V60.75C64.125 62.614 62.614 64.125 60.75 64.125H50.625V16.875H60.75C62.614 16.875 64.125 18.386 64.125 20.25ZM47.25 16.875V38.8125H16.875V20.25C16.875 18.386 18.386 16.875 20.25 16.875H47.25ZM47.25 42.1875V64.125H20.25C18.386 64.125 16.875 62.614 16.875 60.75V42.1875H47.25Z" fill="black"/>
</svg>
