<svg width="50" height="49" viewBox="0 0 50 49" fill="none" xmlns="http://www.w3.org/2000/svg">
<path fill-rule="evenodd" clip-rule="evenodd" d="M32.2917 16.6667C32.2917 20.6937 29.0271 23.9583 25 23.9583C20.9729 23.9583 17.7083 20.6937 17.7083 16.6667C17.7083 12.6396 20.9729 9.375 25 9.375C29.0271 9.375 32.2917 12.6396 32.2917 16.6667ZM30.2083 16.6667C30.2083 19.5431 27.8765 21.875 25 21.875C22.1235 21.875 19.7917 19.5431 19.7917 16.6667C19.7917 13.7902 22.1235 11.4583 25 11.4583C27.8765 11.4583 30.2083 13.7902 30.2083 16.6667Z" fill="white"/>
<path fill-rule="evenodd" clip-rule="evenodd" d="M36.4584 40.625C38.1842 40.625 39.6169 39.2101 39.2498 37.5237C38.6599 34.8135 37.3038 32.3048 35.312 30.313C32.5771 27.5781 28.8678 26.0417 25 26.0417C21.1323 26.0417 17.4229 27.5781 14.688 30.313C12.6962 32.3048 11.3401 34.8135 10.7502 37.5237C10.3831 39.2101 11.8158 40.625 13.5417 40.625L36.4584 40.625ZM33.8389 31.7862C35.5461 33.4934 36.7085 35.6436 37.2142 37.9668C37.2313 38.0454 37.2238 38.0939 37.2139 38.1275C37.2024 38.1662 37.1759 38.2211 37.1174 38.2836C36.9932 38.4164 36.7592 38.5417 36.4584 38.5417L13.5417 38.5417C13.2408 38.5417 13.0068 38.4164 12.8826 38.2836C12.8241 38.2211 12.7977 38.1662 12.7862 38.1275C12.7762 38.0939 12.7688 38.0454 12.7859 37.9668C13.2915 35.6436 14.454 33.4934 16.1612 31.7862C18.5054 29.442 21.6848 28.125 25 28.125C28.3152 28.125 31.4946 29.442 33.8389 31.7862Z" fill="white"/>
</svg>
