<svg width="50" height="50" viewBox="0 0 50 50" fill="none" xmlns="http://www.w3.org/2000/svg">
<path fill-rule="evenodd" clip-rule="evenodd" d="M8.33334 11.0602C8.33334 9.51152 9.96316 8.50424 11.3484 9.19684L39.2275 23.1364C40.763 23.9042 40.763 26.0954 39.2275 26.8632L11.3484 40.8027C9.96316 41.4953 8.33334 40.488 8.33334 38.9393V11.0602ZM38.2958 24.9998L31.7819 21.7428L28.0536 24.9969L31.7872 28.2541L38.2958 24.9998ZM29.7726 29.2613L26.4694 26.3796L14.3096 36.9929L29.7726 29.2613ZM26.4691 23.6146L29.7675 20.7357L14.3093 13.0066L26.4691 23.6146ZM10.4167 12.3753L24.8849 24.9973L10.4167 37.6254V12.3753Z" fill="white"/>
</svg>
