<svg width="35" height="41" viewBox="0 0 35 41" fill="none" xmlns="http://www.w3.org/2000/svg">
<path d="M6.77607 13.0633L11.4165 7.62738C11.7012 7.2938 12.1629 7.2938 12.4477 7.62738C12.7324 7.96095 12.7324 8.50178 12.4477 8.83535L9.05203 12.8131H21.1458C25.1729 12.8131 28.4375 16.6373 28.4375 21.3547C28.4375 26.0722 25.1729 29.8964 21.1458 29.8964H11.6667C11.264 29.8964 10.9375 29.514 10.9375 29.0422C10.9375 28.5705 11.264 28.1881 11.6667 28.1881H21.1458C24.3675 28.1881 26.9792 25.1287 26.9792 21.3547C26.9792 17.5808 24.3675 14.5214 21.1458 14.5214H9.05203L12.4477 18.4991C12.7324 18.8327 12.7324 19.3735 12.4477 19.7071C12.1629 20.0407 11.7012 20.0407 11.4165 19.7071L6.77607 14.2712C6.49131 13.9377 6.49131 13.3968 6.77607 13.0633Z" fill="white"/>
</svg>
