<svg width="114" height="43" viewBox="0 0 114 43" fill="none" xmlns="http://www.w3.org/2000/svg">
<path d="M58.681 15.4916C57.7535 15.1417 56.2497 15.1417 55.3222 15.4916L40.2078 21.1926C39.2803 21.5425 39.2803 22.1097 40.2078 22.4595C41.1353 22.8094 42.6391 22.8094 43.5666 22.4595L56.867 17.4427C56.9116 17.4436 56.9564 17.4441 57.0016 17.4441C57.0129 17.4441 57.0242 17.4441 57.0354 17.444C57.0692 17.4438 57.1028 17.4434 57.1362 17.4427L70.4366 22.4595C71.3641 22.8094 72.8679 22.8094 73.7954 22.4595C74.7229 22.1097 74.7229 21.5425 73.7954 21.1926L58.681 15.4916Z" fill="white"/>
</svg>
